<!DOCTYPE svg PUBLIC "-//W3C//DTD SVG 1.1//EN" "http://www.w3.org/Graphics/SVG/1.1/DTD/svg11.dtd">
<!-- Uploaded to: SVG Repo, www.svgrepo.com, Transformed by: SVG Repo Mixer Tools -->
<svg fill="#1A92BF" height="800px" width="800px" version="1.1" id="Layer_1" xmlns="http://www.w3.org/2000/svg" xmlns:xlink="http://www.w3.org/1999/xlink" viewBox="0 0 512.001 512.001" xml:space="preserve">
<g id="SVGRepo_bgCarrier" stroke-width="0"/>
<g id="SVGRepo_tracerCarrier" stroke-linecap="round" stroke-linejoin="round"/>
<g id="SVGRepo_iconCarrier"> <g> <g> <path d="M444.792,212.653h-50.164v-34.399v-68.061c27.965-3.448,49.665-26.73,49.665-54.868C444.294,24.818,418.792,0,387.447,0 h-56.874H287.67h-66.564h-42.903h-53.381C93.477,0,67.976,24.818,67.976,55.325c0,28.048,21.562,51.27,49.396,54.835v68.094 v34.399H67.209c-4.199,0-7.604,3.404-7.604,7.604v135.124c0,19.706,16.032,35.738,35.737,35.738h22.031v36.35 c0,16.444,13.027,29.896,29.302,30.594v46.335c0,4.199,3.404,7.604,7.604,7.604h41.861c4.199,0,7.604-3.405,7.604-7.604v-46.3 h106.189v46.3c0,4.199,3.404,7.604,7.604,7.604h41.861c4.199,0,7.604-3.405,7.604-7.604v-46.45 c15.486-1.513,27.627-14.602,27.627-30.478v-36.35h22.031c19.706,0,35.737-16.032,35.737-35.738V220.257 C452.396,216.057,448.992,212.653,444.792,212.653z M295.275,15.208h27.695v39.212h-27.695V15.208z M228.711,15.208h51.357v39.212 h-51.357V15.208z M185.808,15.208h27.695v39.212h-27.695V15.208z M117.373,329.095v46.815H95.342 c-11.321-0.001-20.529-9.211-20.529-20.53v-83.909h42.56V329.095z M117.373,256.264h-42.56v-28.403h42.56V256.264z M124.977,54.419c-4.199,0-7.604,3.405-7.604,7.604v32.764c-19.415-3.394-34.189-19.791-34.189-39.462 c0-22.121,18.679-40.117,41.639-40.117H170.6v39.212H124.977z M132.581,321.492v-94.876c12.149,17.422,30.655,30.093,52.139,34.6 v60.276H132.581z M184.72,336.699v33.351h-52.139v-33.351H184.72z M188.535,496.792h-26.653v-38.697h26.653V496.792z M351.793,496.792H325.14v-38.697h26.653V496.792z M379.419,427.467c0.001,8.503-6.915,15.42-15.419,15.42h-4.605h-41.861H196.139 h-41.861h-6.279c-8.502,0-15.42-6.917-15.42-15.42v-42.211h59.743h21.109h85.135h21.109h59.743V427.467z M213.433,129.06h-21.109 c-4.199,0-7.604,3.404-7.604,7.604v63.678c-5.124-4.608-8.354-11.283-8.354-18.701v-70.991h53.025v70.991 c0,7.417-3.229,14.094-8.354,18.701v-63.678C221.037,132.464,217.632,129.06,213.433,129.06z M319.677,129.06h-21.109 c-4.199,0-7.604,3.404-7.604,7.604v63.678c-5.124-4.608-8.354-11.283-8.354-18.701v-70.991h53.025v70.991 c0,7.417-3.229,14.094-8.354,18.701v-63.678C327.281,132.464,323.877,129.06,319.677,129.06z M306.172,336.699h5.902v33.351 h-5.902V336.699z M306.171,206.737v-62.469h0.001h5.902v62.469c-0.526,0.032-1.055,0.056-1.59,0.056h-2.723 C307.226,206.793,306.697,206.77,306.171,206.737z M306.173,321.492v-58.468h3.686c0.743,0,1.476-0.037,2.215-0.056v58.523 H306.173z M309.859,247.815h-3.687v-25.856c0.528,0.021,1.056,0.042,1.59,0.042h2.723c0.533,0,1.062-0.02,1.59-0.041v25.799 C311.337,247.783,310.602,247.815,309.859,247.815z M221.037,321.492v-58.468h69.927v58.468H221.037z M290.964,336.699v33.351 h-69.927v-33.351H290.964z M199.928,336.699h5.902v33.351h-5.902V336.699z M199.927,206.737v-62.469h0.001h5.902v62.469 c-0.526,0.032-1.055,0.056-1.59,0.056h-2.723C200.982,206.793,200.453,206.77,199.927,206.737z M199.928,321.492v-58.523 c0.738,0.018,1.472,0.056,2.214,0.056h3.687v58.468H199.928z M202.143,247.816c-0.743,0-1.477-0.032-2.215-0.056v-25.799 c0.528,0.019,1.056,0.039,1.59,0.039h2.723c0.533,0,1.061-0.02,1.59-0.041v25.856H202.143z M379.42,370.05h-52.139v-33.351h52.139 V370.05z M379.42,321.492h-52.139v-60.276c21.484-4.507,39.99-17.178,52.139-34.6V321.492z M379.42,98.023v80.231 c0,32.342-22.187,59.598-52.139,67.352v-27.281c13.889-6.385,23.562-20.422,23.562-36.683v-78.595 c0-4.199-3.404-7.604-7.604-7.604h-68.233c-4.199,0-7.604,3.405-7.604,7.604v78.595c0,16.261,9.672,30.298,23.562,36.683v29.492 h-69.927v-29.492c13.889-6.385,23.562-20.422,23.562-36.683v-78.595c0-4.199-3.404-7.604-7.604-7.604h-68.233 c-4.199,0-7.604,3.405-7.604,7.604v78.595c0,16.261,9.672,30.298,23.562,36.683v27.281c-29.952-7.753-52.139-35.009-52.139-67.352 V98.023V69.627h45.623h42.903h66.564h42.903h48.846V98.023z M387.025,54.419h-48.846V15.208h49.27 c22.959,0,41.638,17.996,41.638,40.117c0,19.761-14.911,36.219-34.458,39.508V62.023 C394.629,57.824,391.225,54.419,387.025,54.419z M437.189,355.381c0,11.32-9.209,20.529-20.529,20.529h-22.031v-46.814v-57.624 h42.56V355.381z M437.189,256.264h-42.56v-28.403h42.56V256.264z"/> </g> </g> </g>
</svg>