<!DOCTYPE svg PUBLIC "-//W3C//DTD SVG 1.1//EN" "http://www.w3.org/Graphics/SVG/1.1/DTD/svg11.dtd">
<!-- Uploaded to: SVG Repo, www.svgrepo.com, Transformed by: SVG Repo Mixer Tools -->
<svg fill="#1A92BF" width="800px" height="800px" viewBox="0 0 32 32" id="template" xmlns="http://www.w3.org/2000/svg" stroke="#1A92BF">
<g id="SVGRepo_bgCarrier" stroke-width="0"/>
<g id="SVGRepo_tracerCarrier" stroke-linecap="round" stroke-linejoin="round"/>
<g id="SVGRepo_iconCarrier">
<title/>
<path d="M29.571,10.219l-2.46-2.793a.354.354,0,0,0-.265-.12h-7.7V2a.355.355,0,0,0-.355-.354H16A.354.354,0,0,0,15.646,2V4.92H5.154a.354.354,0,0,0-.265.12L2.429,7.833a.355.355,0,0,0,0,.469L4.889,11.1a.354.354,0,0,0,.265.12H15.646v1.638h-7.7a.351.351,0,0,0-.265.12l-2.46,2.793a.354.354,0,0,0,0,.468l2.46,2.793a.351.351,0,0,0,.265.12h7.7V30a.354.354,0,0,0,.354.354h2.79A.355.355,0,0,0,19.145,30V13.6h7.7a.352.352,0,0,0,.265-.121l2.46-2.792A.355.355,0,0,0,29.571,10.219ZM15.646,18.438H8.1L5.956,16,8.1,13.562h7.542Zm0-7.932H5.314L3.167,8.067,5.314,5.629H15.646Zm2.79-2.846V29.646H16.354V2.354h2.082Zm8.25,5.232H19.145V8.015h7.541l2.147,2.438Z"/>
</g>
</svg>